<?xml version="1.0" encoding="UTF-8"?>
<!DOCTYPE svg PUBLIC "-//W3C//DTD SVG 1.1//EN" "http://www.w3.org/Graphics/SVG/1.1/DTD/svg11.dtd">
<!-- Creator: CorelDRAW 2026 -->
<svg xmlns="http://www.w3.org/2000/svg" xml:space="preserve" width="84.6666mm" height="84.6666mm" version="1.1" style="shape-rendering:geometricPrecision; text-rendering:geometricPrecision; image-rendering:optimizeQuality; fill-rule:evenodd; clip-rule:evenodd"
viewBox="0 0 8466.66 8466.66"
 xmlns:xlink="http://www.w3.org/1999/xlink"
 xmlns:xodm="http://www.corel.com/coreldraw/odm/2003">
 <defs>
  <style type="text/css">
   <![CDATA[
    .fil0 {fill:none}
    .fil1 {fill:black}
   ]]>
  </style>
 </defs>
 <g id="Layer_x0020_1">
  <metadata id="CorelCorpID_0Corel-Layer"/>
  <rect class="fil0" x="-0.01" y="-0.02" width="8466.67" height="8466.67"/>
  <path class="fil1" d="M104.54 4212.16c0,2275.58 1845.16,4120.78 4120.78,4120.78 2275.59,0 4120.6,-1845.2 4120.6,-4120.78 0,-2275.63 -1845.01,-4119.2 -4120.6,-4119.2 -2275.62,0 -4120.78,1843.57 -4120.78,4119.2zm378.21 0c0,-2066.11 1676.48,-3742.48 3742.57,-3742.48 2066.05,0 3742.53,1676.37 3742.53,3742.48 0,2067.69 -1676.48,3742.48 -3742.53,3742.48 -2066.09,0 -3742.57,-1674.79 -3742.57,-3742.48zm1100.21 -2204.12l20.13 -14.78c1645.7,749.07 1965.89,1021.43 2844.62,1490.11l415.84 -284.89 -443.01 -1330.56 1030.88 -870.91c-380.97,-145.24 -794.23,-225.05 -1226.1,-225.05 -1061.6,0 -2011,480.57 -2642.36,1236.08zm3264.18 -64.83l242.71 1406.15 -405.48 256.19c322.52,167.23 741.42,367.53 1327.71,632.94 230.59,-542.57 125.06,-836.65 54.34,-1253.87l22.57 8.94 22.56 10.45 188.55 86.08c350.95,159.56 589.04,296.89 700.5,598.09 248.72,667.87 -348.21,587.98 73.96,1028l-862 1912.56 -1275.08 -575.67 384.31 -848.58c331.46,11.93 99.43,307.46 403.95,-330.06 -910.35,-411.4 -1439.21,-619.53 -1843.3,-761.13l-144.64 92.01 -1.44 0 -402.36 938.96 324.01 -889.37 -1347.25 853.24 200.16 1356.15 -349.55 -1418.09 1484.51 -1014.15c-609.6,-203.19 -1214.07,-389.59 -2642.14,-1032.7 -142.21,377.19 -220.23,785.79 -220.23,1212.81 0,1900.34 1541.52,3441.73 3441.81,3441.73 1900.35,0 3441.6,-1541.39 3441.6,-3441.73 0,-1227.54 -643.21,-2304.58 -1610.93,-2913.33l-1208.85 644.38z"/>
 </g>
</svg>
