<?xml version="1.0" encoding="UTF-8"?>
<!DOCTYPE svg PUBLIC "-//W3C//DTD SVG 1.1//EN" "http://www.w3.org/Graphics/SVG/1.1/DTD/svg11.dtd">
<!-- Creator: CorelDRAW 2026 -->
<svg xmlns="http://www.w3.org/2000/svg" xml:space="preserve" width="202.289mm" height="19.2935mm" version="1.1" style="shape-rendering:geometricPrecision; text-rendering:geometricPrecision; image-rendering:optimizeQuality; fill-rule:evenodd; clip-rule:evenodd"
viewBox="0 0 13300.34 1268.53"
 xmlns:xlink="http://www.w3.org/1999/xlink"
 xmlns:xodm="http://www.corel.com/coreldraw/odm/2003">
 <defs>
  <style type="text/css">
   <![CDATA[
    .fil0 {fill:#0B70FF}
    .fil1 {fill:white}
   ]]>
  </style>
 </defs>
 <g id="Layer_x0020_1">
  <metadata id="CorelCorpID_0Corel-Layer"/>
  <g id="_2917753729360">
   <path class="fil0" d="M270.7 1261.28l-270.7 0 0 -388.64 0 -89.54 0 -783.09 392.65 0c56.11,0 106.57,9.64 151.47,29.65 44.87,20.05 83.34,47.29 114.59,84.15 32.04,36.06 56.89,79.33 73.7,129.82 17.65,51.28 26.44,108.19 26.44,172.28 0,60.92 -8.78,116.99 -26.44,168.3 -16.81,50.46 -41.66,94.53 -73.7,131.39 -31.26,36.1 -70.52,64.92 -115.4,84.94 -45.69,20.06 -96.13,30.45 -152.26,30.45l-70.51 0 0 430.32 -49.84 0zm1562.73 -791.68l0 143.03 0 186.29c0,55.31 10.41,111.41 32.06,168.29 20.84,56.08 52.07,105.78 92.14,148.24 48.08,49.69 102.6,87.35 161.88,113.81 60.11,26.44 123.41,39.26 191.53,39.26 66.49,0 130.61,-12.81 191.51,-39.26 60.9,-26.46 113.79,-64.12 160.26,-113.81 41.67,-42.46 72.09,-91.35 92.16,-145.84 20.83,-54.49 31.26,-111.37 32.05,-170.7l0 -186.29 0 -143.03c-0.79,-59.32 -11.22,-116.21 -32.05,-170.69 -20.07,-54.49 -50.49,-103.38 -92.16,-145.84 -46.48,-49.69 -99.37,-87.35 -160.26,-113.81 -60.9,-26.44 -125.03,-39.26 -191.51,-39.26 -68.12,0 -131.41,12.81 -191.53,39.26 -59.28,26.46 -113.81,64.12 -161.88,113.81 -40.07,42.47 -71.3,92.17 -92.14,148.24 -21.64,56.89 -32.06,112.98 -32.06,168.29zm2799.71 476.77l0 314.91c-262.79,0 -525.58,0 -788.36,0 0,-420.42 0,-840.85 0,-1261.28l788.36 0 0 315.73 -472.64 0 0 157.07 347.75 0 0 315.73 -347.75 0 0 157.84 472.64 0zm-1676.37 314.91l229.32 0 0 -388.64 0 -35.73 0 -117.32c72.76,133.28 342.01,500.62 354.01,541.69l252.57 0c0,-420.66 1.59,-839.53 1.59,-1261.28l-331.72 0 0 541.71 -294.08 -541.71 -314.12 0 0 1261.28 51.21 0 51.23 0zm-1205.87 -388.64l0 388.64 -94.54 0 -72.62 0 -147.75 0 0 -342.69 0 -91.29 0 -38.77 -287.7 0 0 42.05 0 42.05 0 388.64 -259.62 0 -27.63 0 -27.63 0 0 -1261.28 314.89 0 0 472.8 287.7 0 0 -472.8 314.91 0 0 0.6 0 826.69 0 45.34z"/>
   <path class="fil1" d="M5917.24 1268.53l793.16 0 0 -317.78 -475.36 0 0 -158.46 349.33 0 0 -316.9 -349.33 0 0 -158.44 475.36 0 0 -316.92 -793.16 0 0 1268.51zm-861.58 0l316.92 0 0 -324.08 135.05 324.08 365.49 0c-39.62,-79.21 -81.94,-162.03 -126.92,-248.48 -44.11,-86.42 -87.35,-170.13 -127.86,-249.37 19.83,-7.21 42.32,-20.72 67.55,-39.61 24.28,-19.8 47.67,-44.11 70.2,-73.85 22.49,-29.69 42.3,-64.78 57.64,-106.2 15.28,-40.51 22.48,-86.43 22.48,-136.85 0,-54.93 -6.3,-107.15 -18.9,-157.55 -12.6,-50.44 -33.32,-94.55 -63.03,-132.34 -29.69,-37.82 -69.29,-68.43 -118.82,-90.92 -49.52,-22.54 -111.64,-33.34 -185.46,-33.34l-394.34 0 0 1268.51zm7300.42 0l333.13 0 0 -545.57 297.05 545.57 314.07 0 0 -1268.51 -333.91 0 0 544.7 -295.25 -544.7 -315.1 0 0 1268.51zm-1182.95 0l354.69 0 108.92 -324.08 211.56 0 112.58 324.08 354.71 0 -347.25 -1187.33 -115.62 59.37 37.02 215.61 -207.36 131.24 -61.8 143.79 49.93 -136.28 -206.66 130.78 30.8 207.93 -53.75 -217.38 414.19 -283.17 -67.81 -204.09 151.09 -128.97 -393.46 0 -371.79 1268.51zm-1217.21 0l333.09 0 0 -347.5 120.66 347.5 205.26 0 117.03 -332.18 0 332.18 334.05 0 0 -1268.51 -310.62 0c-39.61,111.67 -80.12,224.2 -121.52,335.82 -41.44,111.64 -81.94,224.15 -121.56,337.6l-241.29 -673.42 -315.08 0 0 1268.51zm-862.48 0l316.92 0 0 -324.08 135.94 324.08 364.59 0c-39.61,-79.21 -81.02,-162.03 -126.03,-248.48 -45.02,-86.42 -87.33,-170.13 -127.84,-249.37 19.82,-7.21 42.32,-20.72 66.63,-39.61 25.19,-19.8 48.59,-44.11 71.11,-73.85 22.49,-29.69 41.41,-64.78 56.72,-106.2 15.3,-40.51 23.41,-86.43 23.41,-136.85 0,-54.93 -6.31,-107.15 -18.92,-157.55 -12.57,-50.44 -34.2,-94.55 -63.91,-132.34 -29.69,-37.82 -69.32,-68.43 -118.83,-90.92 -49.52,-22.54 -110.74,-33.34 -184.56,-33.34l-395.23 0 0 1268.51zm-79.22 -1268.53l-316.9 0 0 1268.53 316.9 0 0 -1268.53zm-1514.27 1268.53l354.72 0 108.91 -324.08 211.57 0 112.55 324.08 354.68 0 -370.9 -1268.51 -399.74 0 -371.79 1268.51zm700.47 -638.46c-208.35,-94 -162.35,-53.15 -358.2,-141.48l37.69 -83.47c195.81,88.3 134.73,80.85 343.11,174.85 18.07,-42.63 9.76,-65.71 4.27,-98.54l1.74 0.8 1.73 0.8 14.85 6.67c27.54,12.66 46.25,23.4 55.06,47.06 19.6,52.53 -27.38,46.19 5.83,80.88l-67.79 150.28 -100.18 -45.2 30.12 -66.79c12.72,0.51 14.91,6.25 16.57,6.25 1.75,0 2.9,-6.39 15.21,-32.1zm-1420.68 638.46l322.28 0 0 -433.04 71.11 0c55.83,0 107.14,-9.91 152.16,-30.6 45.93,-20.72 84.63,-48.62 117.04,-85.54 31.49,-36.89 56.72,-81.03 73.82,-132.33 18.02,-51.32 27.01,-108.03 27.01,-169.24 0,-63.93 -8.99,-121.58 -27.01,-172.87 -17.1,-51.31 -42.32,-94.53 -73.82,-131.45 -32.41,-36 -71.11,-63.93 -116.14,-83.76 -45.01,-19.77 -95.42,-29.69 -152.16,-29.69l-394.28 0 0 1268.51z"/>
  </g>
 </g>
</svg>
