<?xml version="1.0" encoding="UTF-8"?>
<!DOCTYPE svg PUBLIC "-//W3C//DTD SVG 1.1//EN" "http://www.w3.org/Graphics/SVG/1.1/DTD/svg11.dtd">
<!-- Creator: CorelDRAW 2026 -->
<svg xmlns="http://www.w3.org/2000/svg" xml:space="preserve" width="202.289mm" height="19.2935mm" version="1.1" style="shape-rendering:geometricPrecision; text-rendering:geometricPrecision; image-rendering:optimizeQuality; fill-rule:evenodd; clip-rule:evenodd"
viewBox="0 0 12608.68 1202.56"
 xmlns:xlink="http://www.w3.org/1999/xlink"
 xmlns:xodm="http://www.corel.com/coreldraw/odm/2003">
 <defs>
  <style type="text/css">
   <![CDATA[
    .fil0 {fill:#0B70FF}
    .fil1 {fill:#333333}
   ]]>
  </style>
 </defs>
 <g id="Layer_x0020_1">
  <metadata id="CorelCorpID_0Corel-Layer"/>
  <path class="fil0" d="M256.63 1195.7l-256.63 0 0 -368.43 0 -84.89 0 -742.37 372.23 0c53.19,0 101.03,9.14 143.59,28.1 42.54,19.01 79,44.83 108.64,79.77 30.37,34.19 53.93,75.21 69.87,123.06 16.74,48.62 25.06,102.56 25.06,163.32 0,57.75 -8.33,110.9 -25.06,159.55 -15.93,47.84 -39.49,89.61 -69.87,124.55 -29.63,34.22 -66.86,61.54 -109.4,80.52 -43.31,19.02 -91.13,28.87 -144.34,28.87l-66.84 0 0 407.94 -47.25 0zm1481.46 -750.51l0 135.59 0 176.61c0,52.44 9.87,105.61 30.39,159.54 19.76,53.17 49.36,100.28 87.35,140.54 45.58,47.1 97.27,82.81 153.46,107.89 56.99,25.07 116.99,37.22 181.57,37.22 63.03,0 123.82,-12.15 181.55,-37.22 57.73,-25.08 107.87,-60.78 151.93,-107.89 39.5,-40.25 68.34,-86.6 87.37,-138.25 19.75,-51.66 29.63,-105.58 30.38,-161.82l0 -176.61 0 -135.59c-0.75,-56.23 -10.63,-110.16 -30.38,-161.81 -19.03,-51.66 -47.86,-98 -87.37,-138.26 -44.06,-47.1 -94.2,-82.81 -151.93,-107.89 -57.74,-25.07 -118.53,-37.22 -181.55,-37.22 -64.57,0 -124.58,12.15 -181.57,37.22 -56.2,25.08 -107.89,60.78 -153.46,107.89 -37.99,40.26 -67.59,87.37 -87.35,140.54 -20.52,53.93 -30.39,107.11 -30.39,159.54zm2654.12 451.97l0 298.54c-249.12,0 -498.25,0 -747.36,0 0,-398.56 0,-797.13 0,-1195.69l747.36 0 0 299.31 -448.07 0 0 148.9 329.67 0 0 299.32 -329.67 0 0 149.63 448.07 0zm-1589.2 298.54l217.39 0 0 -368.43 0 -33.87 0 -111.22c68.97,126.35 324.22,474.59 335.6,513.52l239.43 0c0,-398.78 1.51,-795.87 1.51,-1195.69l-314.47 0 0 513.54 -278.79 -513.54 -297.79 0 0 1195.69 48.55 0 48.56 0zm-1143.16 -368.43l0 368.43 -89.62 0 -68.84 0 -140.06 0 0 -324.87 0 -86.55 0 -36.75 -272.74 0 0 39.87 0 39.87 0 368.43 -246.12 0 -26.2 0 -26.2 0 0 -1195.69 298.52 0 0 448.21 272.74 0 0 -448.21 298.53 0 0 0.57 0 783.7 0 42.98z"/>
  <path class="fil1" d="M5609.53 1202.56l751.91 0 0 -301.25 -450.64 0 0 -150.22 331.17 0 0 -300.42 -331.17 0 0 -150.2 450.64 0 0 -300.44 -751.91 0 0 1202.54zm-816.78 0l300.44 0 0 -307.22 128.03 307.22 346.48 0c-37.56,-75.09 -77.68,-153.6 -120.32,-235.56 -41.82,-81.93 -82.81,-161.29 -121.21,-236.4 18.8,-6.83 40.12,-19.65 64.04,-37.55 23.02,-18.77 45.19,-41.82 66.55,-70.01 21.32,-28.14 40.1,-61.41 54.64,-100.68 14.49,-38.4 21.31,-81.94 21.31,-129.73 0,-52.08 -5.97,-101.58 -17.91,-149.36 -11.95,-47.81 -31.58,-89.63 -59.76,-125.46 -28.15,-35.85 -65.68,-64.87 -112.64,-86.19 -46.94,-21.37 -105.83,-31.61 -175.81,-31.61l-373.84 0 0 1202.54zm6920.78 0l315.81 0 0 -517.2 281.61 517.2 297.74 0 0 -1202.54 -316.55 0 0 516.37 -279.89 -516.37 -298.71 0 0 1202.54zm-1121.43 0l336.25 0 103.26 -307.22 200.56 0 106.72 307.22 336.26 0 -329.19 -1125.58 -109.61 56.28 35.1 204.4 -196.58 124.41 -58.58 136.31 47.33 -129.19 -195.92 123.97 29.2 197.11 -50.95 -206.08 392.65 -268.44 -64.29 -193.47 143.23 -122.27 -373 0 -352.45 1202.54zm-1153.91 0l315.76 0 0 -329.43 114.39 329.43 194.58 0 110.94 -314.9 0 314.9 316.67 0 0 -1202.54 -294.47 0c-37.55,105.86 -75.96,212.54 -115.2,318.36 -39.29,105.83 -77.68,212.5 -115.24,320.05l-228.74 -638.4 -298.7 0 0 1202.54zm-817.63 0l300.44 0 0 -307.22 128.87 307.22 345.63 0c-37.55,-75.09 -76.8,-153.6 -119.48,-235.56 -42.68,-81.93 -82.79,-161.29 -121.19,-236.4 18.79,-6.83 40.12,-19.65 63.17,-37.55 23.88,-18.77 46.06,-41.82 67.42,-70.01 21.32,-28.14 39.26,-61.41 53.77,-100.68 14.5,-38.4 22.19,-81.94 22.19,-129.73 0,-52.08 -5.98,-101.58 -17.93,-149.36 -11.92,-47.81 -32.42,-89.63 -60.59,-125.46 -28.14,-35.85 -65.71,-64.87 -112.65,-86.19 -46.95,-21.37 -104.98,-31.61 -174.96,-31.61l-374.68 0 0 1202.54zm-75.1 -1202.56l-300.42 0 0 1202.56 300.42 0 0 -1202.56zm-1435.52 1202.56l336.28 0 103.25 -307.22 200.57 0 106.7 307.22 336.23 0 -351.62 -1202.54 -378.95 0 -352.46 1202.54zm664.05 -605.26c-197.52,-89.11 -153.91,-50.38 -339.57,-134.12l35.73 -79.13c185.63,83.71 127.72,76.64 325.26,165.75 17.13,-40.41 9.26,-62.29 4.05,-93.42l1.65 0.75 1.64 0.75 14.07 6.32c26.1,12 43.85,22.18 52.2,44.62 18.58,49.8 -25.96,43.79 5.52,76.67l-64.26 142.47 -94.97 -42.85 28.55 -63.31c12.05,0.48 14.14,5.92 15.71,5.92 1.66,0 2.75,-6.06 14.42,-30.43zm-1346.8 605.26l305.52 0 0 -410.52 67.41 0c52.93,0 101.57,-9.39 144.24,-29.01 43.54,-19.64 80.22,-46.09 110.95,-81.09 29.86,-34.97 53.77,-76.82 69.98,-125.45 17.08,-48.65 25.61,-102.41 25.61,-160.44 0,-60.6 -8.53,-115.26 -25.61,-163.88 -16.21,-48.64 -40.12,-89.61 -69.98,-124.61 -30.73,-34.13 -67.41,-60.6 -110.1,-79.4 -42.67,-18.74 -90.45,-28.15 -144.25,-28.15l-373.77 0 0 1202.54z"/>
 </g>
</svg>
